<svg xmlns="http://www.w3.org/2000/svg" width="50.001" height="49" viewBox="0 0 50.001 49">
  <g id="Inteligentny_obiekt_wektorowy" data-name="Inteligentny obiekt wektorowy" transform="translate(-537 -1290)">
    <g id="Inteligentny_obiekt_wektorowy-2" data-name="Inteligentny obiekt wektorowy" transform="translate(532.657 1284.98)">
      <path id="Path_23" data-name="Path 23" d="M29.407,10.816A21.6,21.6,0,0,0,13.12,46.571L8.074,52.765l1.519,1.241,4.889-6a21.523,21.523,0,0,0,29.878-.029l4.886,6.038,1.524-1.238-5.049-6.239A21.6,21.6,0,0,0,29.407,10.814Zm0,41.241A19.638,19.638,0,1,1,49.014,32.42,19.642,19.642,0,0,1,29.407,52.056Z"/>
      <path id="Path_24" data-name="Path 24" d="M21.11,5.529,15.3,5.089A9.806,9.806,0,0,0,4.788,14.14l-.445,5.892,3.122.238s3.862-8.906,13.42-11.762ZM19,7.358v0A22.14,22.14,0,0,0,6.445,18.224l.3-3.934a7.855,7.855,0,0,1,8.411-7.242"/>
      <path id="Path_25" data-name="Path 25" d="M37.8,8.467c9.558,2.855,13.42,11.761,13.42,11.761l3.122-.236L53.9,14.1A9.8,9.8,0,0,0,43.386,5.049l-5.809.438Zm5.732-1.461a7.854,7.854,0,0,1,8.411,7.241l.3,3.934A22.14,22.14,0,0,0,39.682,7.32v0"/>
      <path id="Path_26" data-name="Path 26" d="M28.441,32.416H17.633v1.963H30.4V16.7h-1.96Z"/>
      <ellipse id="Ellipse_1" data-name="Ellipse 1" cx="2.126" cy="2.13" rx="2.126" ry="2.13" transform="translate(27.295 30.548)"/>
    </g>
    <path id="Color_Overlay" data-name="Color Overlay" d="M547.14,1332.986l-4.89,6-1.518-1.242,5.045-6.194a21.6,21.6,0,0,1,16.286-35.756v0a21.6,21.6,0,0,1,16.314,35.725l5.05,6.238-1.525,1.238-4.886-6.038a21.523,21.523,0,0,1-29.877.03Zm-4.682-15.586a19.641,19.641,0,0,0,19.606,19.636h0a19.638,19.638,0,1,0-19.607-19.636Zm18.341,1.959H550.29V1317.4h9.678a2.132,2.132,0,0,1,1.131-1.629v-14.083h1.96v14.083a2.129,2.129,0,1,1-2.26,3.592ZM537,1305.014l.445-5.892a9.806,9.806,0,0,1,10.513-9.051l5.81.44-.225,2.978c-9.558,2.857-13.42,11.763-13.42,11.763Zm2.4-5.744-.3,3.935a22.142,22.142,0,0,1,12.56-10.864v0l-3.85-.311q-.3-.023-.6-.023A7.858,7.858,0,0,0,539.4,1299.27Zm31.058-5.822-.224-2.98,5.809-.438a9.8,9.8,0,0,1,10.513,9.051l.445,5.892-3.123.235S580.017,1296.3,570.458,1293.448Zm5.732-1.461-3.851.311v0a22.138,22.138,0,0,1,12.56,10.862l-.3-3.935a7.855,7.855,0,0,0-7.812-7.263Q576.491,1291.964,576.19,1291.987Z" fill="#4044e6"/>
  </g>
</svg>
