<svg xmlns="http://www.w3.org/2000/svg" width="36" height="27" viewBox="0 0 36 27">
  <g id="Stroke_Effect" data-name="Stroke Effect" transform="translate(-426 -28)" fill="none" stroke-linejoin="round">
    <path d="M427,54v-.93h34V54Zm0-12.03v-.93h34v.93Zm0-12.039V29h34v.931Z" stroke="none"/>
    <path d="M 460.9998168945313 54 L 460.9998168945313 53.0703010559082 L 426.9996032714844 53.0703010559082 L 426.9996032714844 54 L 460.9998168945313 54 M 460.9998168945313 41.96969985961914 L 460.9998168945313 41.04000091552734 L 426.9996032714844 41.04000091552734 L 426.9996032714844 41.96969985961914 L 460.9998168945313 41.96969985961914 M 460.9998168945313 29.93040084838867 L 460.9998168945313 28.99980163574219 L 426.9996032714844 28.99980163574219 L 426.9996032714844 29.93040084838867 L 460.9998168945313 29.93040084838867 M 460.9998168945313 55 L 426.9996032714844 55 C 426.4473266601563 55 425.9996032714844 54.55228042602539 425.9996032714844 54 L 425.9996032714844 53.0703010559082 C 425.9996032714844 52.51802062988281 426.4473266601563 52.0703010559082 426.9996032714844 52.0703010559082 L 460.9998168945313 52.0703010559082 C 461.5520935058594 52.0703010559082 461.9998168945313 52.51802062988281 461.9998168945313 53.0703010559082 L 461.9998168945313 54 C 461.9998168945313 54.55228042602539 461.5520935058594 55 460.9998168945313 55 Z M 460.9998168945313 42.96969985961914 L 426.9996032714844 42.96969985961914 C 426.4473266601563 42.96969985961914 425.9996032714844 42.52198028564453 425.9996032714844 41.96969985961914 L 425.9996032714844 41.04000091552734 C 425.9996032714844 40.48772048950195 426.4473266601563 40.04000091552734 426.9996032714844 40.04000091552734 L 460.9998168945313 40.04000091552734 C 461.5520935058594 40.04000091552734 461.9998168945313 40.48772048950195 461.9998168945313 41.04000091552734 L 461.9998168945313 41.96969985961914 C 461.9998168945313 42.52198028564453 461.5520935058594 42.96969985961914 460.9998168945313 42.96969985961914 Z M 460.9998168945313 30.93040084838867 L 426.9996032714844 30.93040084838867 C 426.4473266601563 30.93040084838867 425.9996032714844 30.48268127441406 425.9996032714844 29.93040084838867 L 425.9996032714844 28.99980163574219 C 425.9996032714844 28.4475212097168 426.4473266601563 27.99980163574219 426.9996032714844 27.99980163574219 L 460.9998168945313 27.99980163574219 C 461.5520935058594 27.99980163574219 461.9998168945313 28.4475212097168 461.9998168945313 28.99980163574219 L 461.9998168945313 29.93040084838867 C 461.9998168945313 30.48268127441406 461.5520935058594 30.93040084838867 460.9998168945313 30.93040084838867 Z" stroke="none" fill="#292935"/>
  </g>
</svg>
