<svg xmlns="http://www.w3.org/2000/svg" width="167.005" height="26.174" viewBox="0 0 167.005 26.174">
  <g id="Inteligentny_obiekt_wektorowy" data-name="Inteligentny obiekt wektorowy" transform="translate(-390.995 -28.005)">
    <g id="Inteligentny_obiekt_wektorowy-2" data-name="Inteligentny obiekt wektorowy" transform="translate(223.333 -236.91)">
      <path id="Path_37" data-name="Path 37" d="M211.232,290.235l-1.349-4.143h-8.719l-1.349,4.143h-6.3l8.441-24.72h7.2l8.408,24.72Zm-8.581-8.708h5.743l-2.871-8.778Z" fill="#002e7b"/>
      <path id="Path_38" data-name="Path 38" d="M236.278,265.515h5.916v24.72h-5.916l-9.894-15.555v15.555h-5.916v-24.72h5.916l9.894,15.555Z" fill="#002e7b"/>
      <path id="Path_39" data-name="Path 39" d="M262.812,290.235l-1.348-4.143h-8.718l-1.351,4.143h-6.3l8.441-24.72h7.2l8.405,24.72Zm-8.58-8.708h5.744l-2.873-8.778Z" fill="#002e7b"/>
      <path id="Path_40" data-name="Path 40" d="M280.6,265.585a13.581,13.581,0,0,1,9.547,3.424,12.447,12.447,0,0,1,0,17.785,13.538,13.538,0,0,1-9.547,3.441H272.05v-24.65Zm-2.629,20.085H280.6a6.877,6.877,0,0,0,5.328-2.108,9.215,9.215,0,0,0,0-11.305,6.88,6.88,0,0,0-5.328-2.107h-2.629Z" fill="#002e7b"/>
      <path id="Path_41" data-name="Path 41" d="M309.863,290.235h-5.917V282.3l-8.407-16.714h6.712l4.672,11.131,4.634-11.131h6.712L309.863,282.3Z" fill="#002e7b"/>
      <path id="Path_42" data-name="Path 42" d="M321.384,265.585H327.3V285.67h7.368v4.565H321.384Z" fill="#002e7b"/>
      <path id="Path_43" data-name="Path 43" d="M178.331,277.137l-3.7-11.552h-6.3l8.614,24.649,9.722-24.649h6.3l-8.614,24.649" fill="none" stroke="#002e7b" stroke-linecap="round" stroke-linejoin="round" stroke-width="1.341"/>
    </g>
    <path id="Color_Overlay" data-name="Color Overlay" d="M544.716,53.325V28.675h5.916V48.76H558v4.565Zm-17.437,0V45.389l-8.407-16.714h6.711l4.672,11.131,4.635-11.131H541.6L533.2,45.389v7.936Zm-31.9,0V28.675h8.546a13.579,13.579,0,0,1,9.546,3.424,11.5,11.5,0,0,1,3.738,8.884,11.545,11.545,0,0,1-3.738,8.9,13.534,13.534,0,0,1-9.546,3.442ZM501.3,48.76h2.63a6.875,6.875,0,0,0,5.327-2.108A8.028,8.028,0,0,0,511.193,41a8.028,8.028,0,0,0-1.938-5.654,6.881,6.881,0,0,0-5.327-2.107H501.3Zm-15.154,4.565L484.8,49.181h-8.717l-1.351,4.144h-6.3l8.442-24.72h7.2l8.406,24.72Zm-8.58-8.708h5.744l-2.873-8.779ZM459.61,53.325l-9.894-15.556V53.325H443.8V28.6h5.917L459.61,44.16V28.6h5.916v24.72Zm-25.046,0-1.349-4.144H424.5l-1.349,4.144h-6.3l8.441-24.72h7.2l8.408,24.72Zm-8.581-8.708h5.743l-2.872-8.779Zm-22.285.039,6.3-15.98h6.3l-8.614,24.65Zm-12.034-15.98h6.3l3.7,11.552,2.036,4.428-3.42,8.67Z" fill="#292935"/>
  </g>
</svg>
