<svg xmlns="http://www.w3.org/2000/svg" width="16" height="16" viewBox="0 0 16 16">
  <g id="Inteligentny_obiekt_wektorowy" data-name="Inteligentny obiekt wektorowy" transform="translate(-1514 -32)">
    <g id="Inteligentny_obiekt_wektorowy-2" data-name="Inteligentny obiekt wektorowy" transform="translate(1511.834 29.834)">
      <path id="Path_51" data-name="Path 51" d="M18.166,17.328l-4.615-4.615a6.439,6.439,0,1,0-.838.838l4.615,4.615ZM2.843,8.6A5.758,5.758,0,1,1,8.6,14.36,5.765,5.765,0,0,1,2.843,8.6Z"/>
    </g>
    <path id="Color_Overlay" data-name="Color Overlay" d="M1524.547,43.385a6.44,6.44,0,1,1,.838-.838L1530,47.162l-.838.838Zm-9.87-4.949a5.758,5.758,0,1,0,5.758-5.758A5.765,5.765,0,0,0,1514.677,38.435Z" fill="#292935"/>
  </g>
</svg>
