<svg xmlns="http://www.w3.org/2000/svg" width="122" height="121" viewBox="0 0 122 121">
  <path id="Color_Overlay" data-name="Color Overlay" d="M898,2123.5c0-33.36,27.365-60.5,61-60.5s61,27.14,61,60.5-27.365,60.5-61,60.5S898,2156.86,898,2123.5Zm4.067,0c0,31.135,25.54,56.467,56.933,56.467s56.933-25.331,56.933-56.467-25.541-56.467-56.933-56.467S902.067,2092.364,902.067,2123.5Zm41.75,32.033a2.012,2.012,0,0,1-1.084-1.783v-60.5a2.015,2.015,0,0,1,1.082-1.783,2.056,2.056,0,0,1,2.1.117l44.734,30.25a2.006,2.006,0,0,1,0,3.332l-44.734,30.25a2.048,2.048,0,0,1-1.145.351A2.025,2.025,0,0,1,943.817,2155.532Zm2.983-5.6,39.091-26.433L946.8,2097.068Z" transform="translate(-898 -2063)" fill="#fff"/>
</svg>
