<svg xmlns="http://www.w3.org/2000/svg" width="54" height="53" viewBox="0 0 54 53">
  <g id="Inteligentny_obiekt_wektorowy" data-name="Inteligentny obiekt wektorowy" transform="translate(-933 -1284)">
    <g id="Inteligentny_obiekt_wektorowy-2" data-name="Inteligentny obiekt wektorowy" transform="translate(932.99 1284)">
      <path id="Path_31" data-name="Path 31" d="M27.912,4.6,27.128,0h-.236l-.78,4.6A27.164,27.164,0,0,0,.01,31.829,27.74,27.74,0,0,0,.169,34.78l1.793-.065a5.587,5.587,0,0,1,11.171.207h1.8a5.589,5.589,0,1,1,11.178-.106V48.963a3.977,3.977,0,1,0,7.953,0h-1.8a2.177,2.177,0,1,1-4.354,0V34.921h.005a5.591,5.591,0,1,1,11.181,0h1.8a5.585,5.585,0,0,1,11.168-.257l1.795.055a28.384,28.384,0,0,0,.152-2.891A27.165,27.165,0,0,0,27.908,4.6ZM46.489,27.419A7.378,7.378,0,0,0,40,31.336a7.335,7.335,0,0,0-12.981,0,7.337,7.337,0,0,0-12.983,0,7.383,7.383,0,0,0-6.49-3.917,7.31,7.31,0,0,0-5.676,2.687A25.188,25.188,0,0,1,52.158,30.1a7.324,7.324,0,0,0-5.666-2.682Z"/>
    </g>
    <path id="Color_Overlay" data-name="Color Overlay" d="M959.1,1332.963v-14.146a5.589,5.589,0,1,0-11.178.106h-1.8a5.586,5.586,0,0,0-11.171-.208l-1.793.066a27.79,27.79,0,0,1-.158-2.951,27.164,27.164,0,0,1,26.1-27.229l.779-4.6h.237l.783,4.6a27.166,27.166,0,0,1,26.1,27.229,28.558,28.558,0,0,1-.152,2.891l-1.795-.055a5.586,5.586,0,0,0-11.168.257h-1.8a5.591,5.591,0,1,0-11.182,0H960.9v14.042a2.177,2.177,0,1,0,4.354,0h1.8a3.977,3.977,0,1,1-7.953,0Zm13.889-17.627a7.379,7.379,0,0,1,6.49-3.917h0a7.326,7.326,0,0,1,5.666,2.681,25.188,25.188,0,0,0-50.288.005,7.309,7.309,0,0,1,5.675-2.687,7.384,7.384,0,0,1,6.49,3.917,7.337,7.337,0,0,1,12.982,0,7.336,7.336,0,0,1,12.981,0Z" fill="#4044e6"/>
  </g>
</svg>
